<svg width="63" height="63" viewBox="0 0 63 63" fill="none" xmlns="http://www.w3.org/2000/svg">
<rect width="63" height="63" rx="10" fill="url(#paint0_linear_0_376)"/>
<path d="M27.4615 39.5769C27.4615 40.2159 27.272 40.8405 26.917 41.3718C26.562 41.9031 26.0574 42.3172 25.4671 42.5617C24.8768 42.8063 24.2272 42.8703 23.6004 42.7456C22.9737 42.6209 22.3981 42.3132 21.9462 41.8614C21.4944 41.4096 21.1867 40.8339 21.062 40.2072C20.9374 39.5805 21.0014 38.9309 21.2459 38.3405C21.4904 37.7502 21.9045 37.2456 22.4358 36.8906C22.9671 36.5356 23.5918 36.3461 24.2307 36.3461C25.0876 36.3461 25.9094 36.6865 26.5152 37.2924C27.1211 37.8983 27.4615 38.72 27.4615 39.5769ZM40.3846 36.3461C39.7456 36.3461 39.121 36.5356 38.5897 36.8906C38.0584 37.2456 37.6443 37.7502 37.3997 38.3405C37.1552 38.9309 37.0912 39.5805 37.2159 40.2072C37.3406 40.8339 37.6483 41.4096 38.1001 41.8614C38.5519 42.3132 39.1276 42.6209 39.7543 42.7456C40.381 42.8703 41.0306 42.8063 41.6209 42.5617C42.2113 42.3172 42.7159 41.9031 43.0709 41.3718C43.4259 40.8405 43.6154 40.2159 43.6154 39.5769C43.6154 38.72 43.275 37.8983 42.6691 37.2924C42.0632 36.6865 41.2414 36.3461 40.3846 36.3461Z" stroke="white" stroke-width="3" stroke-linecap="round" stroke-linejoin="round"/>
<path d="M35.5385 21.8076V39.5769H27.4615C27.4615 38.72 27.1211 37.8983 26.5153 37.2924C25.9094 36.6865 25.0876 36.3461 24.2308 36.3461C23.3739 36.3461 22.5521 36.6865 21.9463 37.2924C21.3404 37.8983 21 38.72 21 39.5769H17.7692C17.3408 39.5769 16.9299 39.4067 16.627 39.1037C16.324 38.8008 16.1538 38.3899 16.1538 37.9615V21.8076C16.1538 21.3792 16.324 20.9683 16.627 20.6654C16.9299 20.3625 17.3408 20.1923 17.7692 20.1923H33.9231C34.3515 20.1923 34.7624 20.3625 35.0653 20.6654C35.3683 20.9683 35.5385 21.3792 35.5385 21.8076ZM44.9561 29.4807L42.4846 25.7653C42.3368 25.5408 42.1352 25.3568 41.8983 25.2299C41.6614 25.1029 41.3965 25.0371 41.1277 25.0384H35.5385V39.5769H37.1538C37.1538 38.72 37.4942 37.8983 38.1001 37.2924C38.706 36.6865 39.5278 36.3461 40.3846 36.3461C41.2415 36.3461 42.0632 36.6865 42.6691 37.2924C43.275 37.8983 43.6154 38.72 43.6154 39.5769H45.2308V30.3692C45.2283 30.0525 45.1328 29.7436 44.9561 29.4807Z" stroke="white" stroke-width="3" stroke-linecap="round" stroke-linejoin="round"/>
<defs>
<linearGradient id="paint0_linear_0_376" x1="0" y1="0" x2="63" y2="63" gradientUnits="userSpaceOnUse">
<stop stop-color="#504178"/>
<stop offset="1" stop-color="#FF7B8A"/>
</linearGradient>
</defs>
</svg>
