<svg width="74" height="36" viewBox="0 0 74 36" fill="none" xmlns="http://www.w3.org/2000/svg">
<circle cx="13.5" cy="18" r="13" fill="#50A8E8"/>
<path d="M16.476 10.712C16.06 10.712 15.708 10.568 15.42 10.28C15.132 9.992 14.988 9.64 14.988 9.224C14.988 8.808 15.132 8.456 15.42 8.168C15.708 7.88 16.06 7.736 16.476 7.736C16.876 7.736 17.212 7.88 17.484 8.168C17.772 8.456 17.916 8.808 17.916 9.224C17.916 9.64 17.772 9.992 17.484 10.28C17.212 10.568 16.876 10.712 16.476 10.712ZM17.532 12.848V26H15.348V12.848H17.532ZM25.8623 12.608C27.4623 12.608 28.7583 13.096 29.7503 14.072C30.7423 15.032 31.2383 16.424 31.2383 18.248V26H29.0783V18.56C29.0783 17.248 28.7503 16.248 28.0942 15.56C27.4383 14.856 26.5423 14.504 25.4063 14.504C24.2543 14.504 23.3343 14.864 22.6463 15.584C21.9743 16.304 21.6383 17.352 21.6383 18.728V26H19.4542V12.848H21.6383V14.72C22.0703 14.048 22.6543 13.528 23.3903 13.16C24.1423 12.792 24.9663 12.608 25.8623 12.608ZM35.6698 14.648V22.4C35.6698 23.04 35.8058 23.496 36.0778 23.768C36.3498 24.024 36.8218 24.152 37.4938 24.152H39.1018V26H37.1338C35.9178 26 35.0058 25.72 34.3978 25.16C33.7898 24.6 33.4858 23.68 33.4858 22.4V14.648H31.7818V12.848H33.4858V9.536H35.6698V12.848H39.1018V14.648H35.6698ZM51.948 18.92C51.948 19.336 51.924 19.776 51.876 20.24H41.364C41.444 21.536 41.884 22.552 42.684 23.288C43.5 24.008 44.484 24.368 45.636 24.368C46.58 24.368 47.364 24.152 47.988 23.72C48.628 23.272 49.076 22.68 49.332 21.944H51.684C51.332 23.208 50.628 24.24 49.572 25.04C48.516 25.824 47.204 26.216 45.636 26.216C44.388 26.216 43.268 25.936 42.276 25.376C41.3 24.816 40.532 24.024 39.972 23C39.412 21.96 39.132 20.76 39.132 19.4C39.132 18.04 39.404 16.848 39.948 15.824C40.492 14.8 41.252 14.016 42.228 13.472C43.22 12.912 44.356 12.632 45.636 12.632C46.884 12.632 47.988 12.904 48.948 13.448C49.908 13.992 50.644 14.744 51.156 15.704C51.684 16.648 51.948 17.72 51.948 18.92ZM49.692 18.464C49.692 17.632 49.508 16.92 49.14 16.328C48.772 15.72 48.268 15.264 47.628 14.96C47.004 14.64 46.308 14.48 45.54 14.48C44.436 14.48 43.492 14.832 42.708 15.536C41.94 16.24 41.5 17.216 41.388 18.464H49.692ZM55.2148 8.24V26H53.0308V8.24H55.2148ZM59.3211 8.24V26H57.1371V8.24H59.3211ZM72.5713 12.848L64.6513 32.192H62.3953L64.9873 25.856L59.6833 12.848H62.1073L66.2353 23.504L70.3153 12.848H72.5713Z" fill="black"/>
</svg>
